# xmcd
#
# Track frame offsets:
#	150
#	15296
#	35769
#	47702
#	61724
#	71064
#	85001
#	101025
#
# Disc length: 1577 seconds
#
# Revision: 1
# Processed by: cddbd v1.5.2PL0 Copyright (c) Steve Scherf et al.
# Submitted via: audiograbber 1.83.01
#
DISCID=5e062708
DTITLE=MISTFINKS - ROCKABILLY GEWITTER
DYEAR=2018
DGENRE=Rockabilly
TTITLE0=Rockabilly Queen
TTITLE1=Nachtschicht
TTITLE2=Sweetest Wife
TTITLE3=Johnny und Elvis
TTITLE4=Sunny Days
TTITLE5=Die kleine Kneipe
TTITLE6=Vampyre´s Land
TTITLE7=Betty Tattoo
EXTD=
EXTT0=
EXTT1=
EXTT2=
EXTT3=
EXTT4=
EXTT5=
EXTT6=
EXTT7=
PLAYORDER=
